/* XPM */
static char *a9e0d9b7b19f4b76c2222857206aa88fjELk7TgmOhsluDfn[] = {
/* columns rows colors chars-per-pixel */
"64 64 236 2 ",
"   c #190A09",
".  c #1D1518",
"X  c #170C13",
"o  c #240D0A",
"O  c #2C130D",
"+  c #25130D",
"@  c #36130E",
"#  c #241515",
"$  c #2B1513",
"%  c #2C1A15",
"&  c #241B1C",
"*  c #2B1C1C",
"=  c #251719",
"-  c #321614",
";  c #321A16",
":  c #331D1C",
">  c #3B1E1C",
",  c #3A1B13",
"<  c #2D211D",
"1  c #22211D",
"2  c #33211E",
"3  c #3B221D",
"4  c #241B23",
"5  c #2B1D22",
"6  c #291A26",
"7  c #321D24",
"8  c #331E2A",
"9  c #272122",
"0  c #2C2323",
"q  c #2C242A",
"w  c #272429",
"e  c #332424",
"r  c #3B2423",
"t  c #342926",
"y  c #32252A",
"u  c #3C262A",
"i  c #342A2B",
"p  c #3B2B2B",
"a  c #3A2A25",
"s  c #2C2832",
"d  c #342B32",
"f  c #3B2D32",
"g  c #3A2B38",
"h  c #3C3235",
"j  c #3A3239",
"k  c #3A302F",
"l  c #471D17",
"z  c #541C15",
"x  c #4F1A0D",
"c  c #44231C",
"v  c #49271E",
"b  c #56251A",
"n  c #62291E",
"m  c #432523",
"M  c #4B2B25",
"N  c #422B2C",
"B  c #4D2E2A",
"V  c #442826",
"C  c #562B26",
"Z  c #4D332B",
"A  c #55322B",
"S  c #5C342C",
"D  c #573127",
"F  c #442D32",
"G  c #4C3334",
"H  c #43343B",
"J  c #473639",
"K  c #5C3B35",
"L  c #583835",
"P  c #632E24",
"I  c #63332B",
"U  c #6B362C",
"Y  c #70382D",
"T  c #6C3C31",
"R  c #643A35",
"E  c #743B33",
"W  c #773C35",
"Q  c #5A4339",
"!  c #6C433C",
"~  c #68463C",
"^  c #7B443B",
"/  c #76453B",
"(  c #433C43",
")  c #4B3C43",
"_  c #433944",
"`  c #563E42",
"'  c #4A4349",
"]  c #53444B",
"[  c #584447",
"{  c #4A4A53",
"}  c #554B55",
"|  c #59535A",
" . c #694944",
".. c #744C45",
"X. c #7B4C44",
"o. c #784A47",
"O. c #7A524B",
"+. c #66565A",
"@. c #795956",
"#. c #6A4E4D",
"$. c #585963",
"%. c #655D63",
"&. c #6F5E68",
"*. c #69646A",
"=. c #6B6972",
"-. c #746C75",
";. c #787379",
":. c #75676C",
">. c #82493D",
",. c #83503F",
"<. c #844C42",
"1. c #864B43",
"2. c #855345",
"3. c #82534B",
"4. c #8B544B",
"5. c #8C5B4C",
"6. c #8A5347",
"7. c #925A4D",
"8. c #93564B",
"9. c #8C5D53",
"0. c #845A54",
"q. c #9A5E52",
"w. c #945C53",
"e. c #8A645B",
"r. c #9C6255",
"t. c #94645B",
"y. c #9D6459",
"u. c #9C6B5C",
"i. c #956356",
"p. c #A36B5C",
"a. c #A3675A",
"s. c #A7715F",
"d. c #8A6867",
"f. c #9C6D63",
"g. c #946B66",
"h. c #9B7369",
"j. c #977775",
"k. c #877276",
"l. c #A46D61",
"z. c #A66B61",
"x. c #A47264",
"c. c #AB7364",
"v. c #AB756A",
"b. c #A7776B",
"n. c #B47C6C",
"m. c #B27664",
"M. c #A57772",
"N. c #B27D71",
"B. c #BB7D71",
"V. c #B58375",
"C. c #BB8375",
"Z. c #BC8A7D",
"A. c #B9847A",
"S. c #AF8476",
"D. c #9A8278",
"F. c #C48C7C",
"G. c #C58A78",
"H. c #CD967A",
"J. c #D39B7C",
"K. c #DFA37F",
"L. c #7B7A84",
"P. c #827D83",
"I. c #867D87",
"U. c #7E858C",
"Y. c #87848B",
"T. c #8B8894",
"R. c #928E99",
"E. c #8C949C",
"W. c #94959C",
"Q. c #99979B",
"!. c #95888A",
"~. c #B68B86",
"^. c #B7928C",
"/. c #A6989A",
"(. c #AA908F",
"). c #AEA09C",
"_. c #8C99A7",
"`. c #949AA4",
"'. c #9B9BA4",
"]. c #969CAB",
"[. c #999EAD",
"{. c #9695A4",
"}. c #949CB3",
"|. c #9B9EB2",
" X c #999CB9",
".X c #8E9DB2",
"XX c #A29EAB",
"oX c #A69AA3",
"OX c #A19FB4",
"+X c #9AA3A6",
"@X c #96A1AD",
"#X c #9BA1AE",
"$X c #98A9A8",
"%X c #9BA1B1",
"&X c #99A1B1",
"*X c #9CA2B1",
"=X c #9BA9B5",
"-X c #99A6B8",
";X c #8BA2AA",
":X c #A2A2AD",
">X c #A5A5A8",
",X c #A2A5B3",
"<X c #A4AAB5",
"1X c #A7A9B9",
"2X c #A7B1B9",
"3X c #B6ABB0",
"4X c #C48D81",
"5X c #C49383",
"6X c #CD9485",
"7X c #C9988B",
"8X c #D39B8B",
"9X c #C49C94",
"0X c #D59D93",
"qX c #D4A58D",
"wX c #CBA297",
"eX c #D4A393",
"rX c #DBA495",
"tX c #DCAA9B",
"yX c #D9A797",
"uX c #CAA18B",
"iX c #E1A996",
"pX c #D6AAA4",
"aX c #D8B3AA",
"sX c #C6B7B7",
"dX c #CEAFAB",
"fX c #E8B8AB",
"gX c #D8C1BC",
"hX c #F5C8BC",
"jX c #A9ACC2",
"kX c #CEBDC5",
"lX c #DBCECB",
"zX c #E4CAC5",
"xX c #E3C6C2",
"cX c #E9D2CD",
"vX c #EDD4D1",
"bX c #FCEDEB",
/* pixels */
"[.[.[.#X#X#X[.[.].].].].].[.#X#X].@X*X#X@X].@X*X@X#X#X#X+X@X`.E._._.;X;X.X_..X-X-X.X}.-XjX X X X|.[.[.[.[.[.[.[.[.[.|.|.|.|.[.[.",
"].[.[.#X#X#X[.[.[.].].].].[.[.#X].@X#X#X@X@X@X#X*X#X@X`.`.+X:X<X@X@X@X@X=X&X.X.X}.}.}. X}.}. X-X|.|.[.[.[.[.[.[.[.[.|.|.[.|.[.[.",
"].[.[.#X#X#X#X[.[.[.].].].[.[.#X#X@X@X@X#X#X#X@X].@X:X:X#X`.W.R.T.U.L.T.`.`.].].].*X*X*X*X*X|.}.|.|.[.[.|.|.[.[.[.[.[.[.[.[.[.[.",
"].].[.[.#X#X#X#X[.[.].].].[.[.#X#X#X@X@X@X@X#X#X:X#X:X:XQ.Y.=.| ' ( ( | -.Y.'.:X].#X*X].@X=X=X_.|.|.*X*X*X*X*X*X[.[.[.[.[.[.[.[.",
"].].[.[.#X#X#X#X[.[.[.].].].[.#X@X@X#X#X@X#X,X<X1XW.P.;.=.+.{ ) p r e p ) } %.*.Y.W.'.`.`.].#X@X|.|.|.|.*X*X*X*X|.|.[.[.[.[.|.|.",
"].].[.[.#X#X#X#X#X[.[.].].].[.].].@X#X#X#X#X:XXXT.-.| } ] ) H H G N m m u t t i ' =.W.<X#X+X@X#X#X*X*X*X*X*X*X*X|.[.[.[.[.|.|.|.",
"].].].[.#X#X#X#X#X[.[.].].].].].&X@X@X#X:X'.T.P.%.} ' ' ) H f F u r r N N p p h 5 ( =.W.:X#X@X].#X*X*X*X*X*X*X*X[.[.[.[.[.[.|.|.",
"].].].[.#X#X%X%X#X#X[.].].].].].=X@X].@X#XR.-.| +.] ` J J u u F [ J F N p a y t d 0 d | Y.'.#X#X#X*X*X*X*X*X*X*X[.[.[.[.[.[.|.[.",
"].[.[.#X%X%X#X#X#X#X#X[.[.[.[.].*X@X].:XT.*.%.| [ J p u u u F J h h i t y y y y y 4 6 d { T.2X{.[.[.[.*X|.*X*X*X*X*X[.].].[.[.[.",
"].[.[.#X%X%X#X#X#X#X#X[.[.[.[.].*X#X#X<XW.=.+.] F F F N r : : e h i q 9 0 y e e y e d q j -.,XOX[.[.[.*X|.*X*X*X*X*X[.].].].[.[.",
"].[.[.#X%X%X#X#X#X#X#X[.[.[.[.].].#X].:XT.*.| J a a a r r m u e 9 & . & 9 0 * $ * e d 8 6 } T.,X[.[.[.*X|.*X*X*X*X*X[.].[.].].[.",
"].[.[.#X%X%X#X#X#X#X#X[.[.[.[.[.].#X`.'.;.} [ a 3 r 3 ; - ; ; $ & & * 0 e 3 : % $ * 7 8 6 d *.XX[.[.[.*X|.*X*X*X*X*X[.].[.[.[.|.",
"].[.[.#X%X%X#X#X#X#X#X[.[.[.[.[.*X%X[.'.-.J F a % 3 m 3 ; % ; : o # % $ O O ; 3 m > $ 5 q 4 { [.[.[.[.*X*X*X*X*X*X*X[.].].].[.|.",
"].[.[.#X%X%X#X#X#X#X#X[.[.[.[.[.].[.#X'.*.i F Q @.L ; + $ ; % % O O , @ @ l A ~ ..L ; % y & ' :X].[.[.*X*X*X*X*X*X*X[.].[.[.[.|.",
"].[.[.#X%X%X#X#X#X#X#X[.[.[.[.[.].].].Q.%.f +.!.gXD.Q V Z N e ; ..O.3.3.O.3.t.h.e.e.Z $ < & ' +X].[.[.*X*X*X*X*X*X*X[.].[.[.[.|.",
"].[.[.#X%X%X#X#X#X#X#X[.[.[.[.[.=X*X].W.%.J !.vXcXdX^.^.S.j.j.S.Z.F.F.Z.N.c.p.u.u.M. .; * 1 ' E.].[.[.*X*X*X*X*X*X*X[.[.[.[.[.|.",
"].].[.[.#X#X#X#X#X#X#X[.[.[.].].*X{.<XW.{ *.gXvXhXaXeX7XuXuXuXuXH.H.G.G.C.n.s.a.p.u.e.V * . { <X].[.#X#X#X#X#X#X#X#X#X#X#X[.[.[.",
"].].[.[.#X#X#X#X#X#X#X#X[.[.].].[.`.,XW.} k.vXvXfXpX0X8XrXeXqXqXiXK.J.G.C.n.m.m.p.u.u.M * . { =X].[.#X#X#X#X#X#X#X#X#X#X#X[.[.[.",
"].].[.[.#X#X#X#X#X#X#X#X[.[.[.[.*X[.*XW.| /.bXzXfXpXeXrXyXyXqXqXJ.J.J.H.G.n.c.c.p.t.t.A : 4 $.<X].[.#X#X#X#X#X#X#X#X#X#X#X[.[.[.",
"].].[.[.#X#X#X#X#X#X#X#X#X[.[.[.%X%X#X'.| >XbXxXaXtXeXrXtXyXqXqXJ.J.8X6XF.V.m.c.u.i.e.A $ & *.2X[.[.#X#X#X#X#X#X#X#X#X#X#X[.[.[.",
"].].[.[.#X#X#X#X#X#X#X#X#X#X#X[.%X%X#X#X$.!.bXzXpXeXeXyXtXtXqXqXyXqX6XZ.V.N.N.n.x.i.e.K $ . =.<X].[.#X#X#X#X#X#X#X#X#X#X#X[.[.[.",
"].].[.[.#X#X#X#X#X#X#X#X#X#X#X#X|.*X].#X=.;.cXzXwX9X0XrXtXtXyXqXyXeX7X5XZ.A.V.V.c.u.x.@.3 & ;.:X].[.#X#X#X#X#X#X#X#X#X#X#X[.[.[.",
"].].[.[.#X#X#X#X#X#X#X#X#X#X#X#X|.%X%X#XT.;.cXzXwXwXeXtXtXyXeXqXeXtXtXwX~.x.t.i.5.5.b.g.Z e I.XX].[.#X#X#X#X#X#X#X#X#X#X#X[.[.[.",
"].].[.[.#X#X#X#X#X#X#X#X#X#X#X*X|.,X,X].>XP.vXzXdXpXyXtXtXeX7X7X7XeX7XM.X.C l x P T f.h.A 7 I.'.].[.#X#X#X#X#X#X#X#X#X#X#X[.[.[.",
"].[.[.#X#X%X#X#X#X#X#X#X#X#X#X*X|.%X<X].>XT.lXdX .R / i.n.A.5X5XZ.b.! @ b 0.t.5.<.<.9.h. .G +.oX[.#X#X#X#X#X#X#X#X#X#X#X#X#X#X#X",
"].[.[.#X#X%X#X#X#X#X#X#X#X#X#X*X,X*X*X`.>XY.sX/.e.e.X.P n ^ b.5Xb.2.I I R I I P <.w.u.b. .[ &.oX[.#X#X#X#X#X#X#X#X#X#X#X#X#X#X#X",
"].[.[.#X#X%X#X#X#X#X#X#X#X#X#X*X,X|.#X'.<XW.sX).j...b b T T 5.7X4X4.3.f.t.! T T 2.x.b.h... .:.oXXX#X#X#X#X#X#X#X#X#X#X#X#X#X#X#X",
"].[.[.#X#X%X#X#X#X#X#X#X#X#X#X*X|.[.[.#X2X+XsXsX#.g.9./ ,.2.x.7X5Xr.i.M.f.t.f.y.r.n.b.f.O.O.d./.XX#X#X#X#X#X#X#X#X#X#X#X#X#X#X#X",
"].[.[.#X#X%X#X#X#X#X#X#X#X#X#X*X*X|.%X#X,XQ.3XgXwX9Xf.2.x.Z.Z.Z.F.r.r.v.x.N.F.C.G.C.c.x.3.@.k.oXXX#X#X#X#X#X#X#X#X#X#X#X#X#X#X#X",
"].[.[.#X#X%X#X#X#X#X#X#X#X#X#X*X|.*X,X#X+XQ.3XlXvXaX^.V.Z.V.7XfXF.a.a.C.4X4X5XF.6XC.p.f.O.e.j.oX:X%X%X%X%X%X%X%X#X#X#X#X#X#X#X#X",
"].[.[.#X#X%X#X#X#X#X#X#X#X#X%X%X|.|.*X#X:X'.3XvXzXaX7XZ.7XfXfXfXF.a.q.n.6X7X4XG.G.c.a.y.! d.(./.:X%X%X%X%X%X%X%X#X#X#X#X#X#X#X#X",
"].[.[.#X#X%X#X#X#X#X#X#X#X#X%X%X|.|.|.%X#X'.>XlXzX9X5XtXtX7XtXhX6XB.a.p.6XyX0X6Xn.s.x.u.R j.3XoX:X:X#X#X%X%X%X%X*X*X*X#X#X#X#X#X",
"].[.#X#X#X#X#X%X#X#X#X#X#X#X#X%XOX X].*X2X+XQ.sXgX^.yXtXrX8XfXtXC.l.q.z.C.0XrXG.n.u.h.O.A [ k./.'.1X1X[.[.%X[.|.*X*X*X%X%X%X#X#X",
"].[.#X#X#X#X#X%X#X#X#X#X#X#X#X%X].1X,X&X=X+XQ.).zXpXtXrX7XC.V.5.i.U Y c.6X6XG.F.V.f.e.~ r * = 4 } *.T.:X,X].[.1X*X*X*X%X%X%XXXXX",
"].[.#X#X#X#X#X%X#X#X#X#X#X#X#X%X1XOX_.].2X<XQ./.aXaX7X0X0XtXqXu.4.X.1.c.6X6XG.6Xn.u.3.L m p 5 5 4 6 ' ;.W.,X,X].*X*X*X%X%X%X:X:X",
"].[.#X#X#X#X#X%X#X#X#X#X#X#X#X%X[.,X,X*X*X#X>X/.dXcXpXyX7XrX7Xi.I ^ ^ ^ 6.q.a.C.v.t.X.v - u i j q 4 4 s $.{.,X_.%X*X*X%X%X%X:X:X",
"].[.#X#X#X#X#X%X#X#X#X#X#X#X#X%X[.1X1X%X,X2XR.+.@.wXaXyXn.b.l.2.4.4.^ E W U >.c.u.2.! c O % = = d d d 4 w $.E.<X%X%X%X%X%X%X,X,X",
"].[.#X#X#X#X#X%X#X#X#X#X#X#X#X#XjX[.[.<X#XP.| p [ (.zXpX9.,.,.<.^ ^ Y Y >.q.s.n.y.T S v % e 0 = q d d q w s $.#X%X%X%X%X%X%X,X,X",
"].[.#X#X#X#X#X%X#X#X#X#X#X#X#X#X[.'.1X`.| w d ] u  .wX9Xb.N.A.Z.v.v.l.r.a.n.c.6.y.I S M o # 5 . 5 q & w j w j L.:X%X%X%X%X%X%X%X",
"].[.#X#X#X#X#X%X#X#X#X#X#X#X#X#X:X1XR.( X j | J 7 - j.~.5XtX5Xc.<.U ^ y.a.q.q.q.<.b !  .o   0 & 4 h 5 4 j q s %.:X:X:X%X%X%X%X,X",
"].[.#X*X,X,X*X*X*X%X%X%X*X*X*X#X1XY.s 4 s ( %.H * % > h.9XV.C.p.v.v.N.C.n.z.a.6.x ! O.K ; o # * & 0 5 0 y q d ( R.:X{.].1X|.|.*X",
"].[.#X*X,X,X*X*X*X%X#X#X*X,X<X,X:X( j j q ] %.h y * o K M.Z.rX4X0XZ.C.4XB.q.W n T 3.0.K ; + # & 0 y 5 5 0 0 y _ I.'.[.:X,X{.].|.",
"].#X#X*X*X*X*X*X*X%X#X%X*X<X<X<XL.. ( _ 4 | | j y * *  .S.t.B.6Xn.r.7.7.>.n n P 4.e.0.L ; $ & * e y * & 5 5 y H Y.'.[.,X[.].*X}.",
"[.#X#X*X*X*X*X*X*X%X%X*X<X,X,X:X| q ' q 4 +.] H f     G 9Xf.8.E E n n n z z W w.w.t.O.A ; $ * < * e * * e e p ) Q.oX'.[.[.*X1X].",
"#X#X#X%X*X%X%X%X%X*X*X,X<X,X#X'.{ h ) f 6 ) ) j q 9 # O D.~.N.W Y P P U Y ^ 1.1.w.9...B ; $ * < * * * * e e y H !.oXoX[.[.[.*X].",
"#X#X#X%X%X*X%X%X%X*X*X,X<X*X[.`.| 9 f ] e y ] d 5 y t % @.S.8XF.v.c.c.z.q.y.z.y.i.0.! V ; % * < * e : : e * 7 p &.Q.oXXX,X}.}.*X",
"%X#X#X#X%X%X*X*X*X*X*X*X,X*X%X[.*.q t ] F y H d d .   $  .b.A.G.v.p.p.r.1.>.w.l.i.O.S l ; : < * * e 2 : e : e F ] Y.I.Y.,X|.].-X",
"#X#X#X#X#X%X*X*X<X=X%X%X*X,X,X:X%.[ e 6 J H 6 g q 9 < % B g.A.C.C.r.8.r.y.r.l.M.9...M - $ 2 2 * < y e : r 3 m G J :.} | {.[._.].",
"@X@X+X#X#X*X%X%X*X_.1X].<X].[.oX&.L 7 e H H d q d &   o m ..h.Z.c.m.m.a.a.x.x.f.O.B - ; 3 * * 0 0 0 < 3 > m B L K d.[ H } =.T.{.",
"+X+X+X#X#X*X=X%XjX|.1X,X1XXX>XR.k.#.F 7 0 y d d 0 9 * $ - V ..g.C.m.a.r.n.Z.M.e.V ; $ 7 y e 9 q 0 0 2 3 m M S S ..@.G % d ' =.I.",
"+X+X#X#X#X*X=X=X1X*X,X1XXXQ.sX/.+.#.` N y y y q 9 q y * o O V R t.x.x.x.g.O.K 3 % % * e e 9 9 9 0 0 e m M S I I O.#.V * y d _ } ",
"+X#X#X#X*X=X=X=X].,X<X<XP.I.kX(.`  . .G p p y 9 q 0 * # $ % > c l R 3.O.K m ; $ * e y 0 5 5 0 9 < e r V M S R T O. .a y f i q d ",
"XX:X#X*X=X=X=X=X=X2X:XR.| k.sXj.@.@. .B r r t t t 9 & # * : 7 > - > m 3 e e y y 5 q q 5 0 y d y 2 m B M C I T o.0.L ; $ e 0 0 d ",
"XXXX#X*X=X=X-X=X=X{.L.-.` k.dXg.e.@.~ B 3 3 y t 0 0 0 * # # * r N a 3 : e q 0 4 0 0 0 0 0 y y e 3 M D C C U / o.0.M % $ e y 0 j ",
"XXXX,X*X=X-X=X=X].=.} } J d.^.h.9.O...K Z 3 3 2 < y t 9 = . & y * e p f p i q q q q 0 0 * * * > M D S S I W X.o...c 2 2 t k 5 q ",
"XXXX,X,X=X=X=X=XE.$.( ] N @.h.M.f.i.O.! S c > 3 e e 0 * & & & 5 p p y t i y 9 & y 9 * * % % 3 M D S I P E <.X.T ..3 ; % < t & 4 ",
"XX'.,X,X].=X2X_.=.{ j ] > #.M.0.x.4.X.3.! D c 3 2 2 # 0 # q & & t p p t y 0 0 t * * % O - l M D I / W E E <.3.I ~ 3 + < t y 9 & ",
"XX'.,X,X*X<X&XU.$.{ j p 3 R 0.3.b.5.2.5.X.R D v 3 3 $ < = y 9 0 y t p p e < < < + + O , c C I U U / ^ 1.1.4.4.I R 3 $ e y * 5 5 ",
"[.[.,X<X,X<XE.=.{ | H * r B ..X.b.8.6.i.5.X.! K v c % * # y 0 5 * e a a e < % % o o @ v S T ^ ^ 5.w.1.^ Y W X.I A > * t 0 & & e ",
"'.#X:X,X<X,XY.$.' } ) 7 r m #...x.8.8.i.i.5.3.X.S Z 3 $ # 0 4 . * r a a e < * $ + O 3 D ! <.1.1.>.2.1.6.<.^ o.S M ; * y 5 = 5 7 ",
"+X#X+X#X<X].L.} _ H H u : > #.~ t.4.7.r.q.7.i.t.! K V $ % 0 0 . e r a e e 0 < % % ; v R X.6.6.6.6.2.>.1.W T ! K V % * 0 5 & 6 7 ",
"+X$X+X:X<XR.*.} _ y i p % $ Q Q 9.6.7.y.q.7.y.f.3.~ A $ 3 y i & e p p y 0 y 0 * % > V ! O.<.1.>.1./ n n z l I R m $ # 5 5 5 5 6 ",
"$X$X+X,X:XP.| ] j d = t 2 + a Q 9.6.q.a.r.q.y.u.9.! A O r p f & 5 y t y q y q & * : B ! ..W U U x x z U P C R K 3 # # * & & 7 7 ",
"$X$X+X<X:X;.] ] g H X e p % + Q 9.8.q.p.a.a.y.i.9...S O 3 y p = * e t y y i q # * 3 G  ...I z z Y U Y X.E C R L : # & & = = 7 8 "
};
