/* XPM */
static char *_7ea7b1f99c045f8caad2aef6aea6e47fOVuRSGsXIhEKyIs[] = {
/* columns rows colors chars-per-pixel */
"64 64 140 2 ",
"   c white",
".  c gray99",
"X  c gray92",
"o  c #E9E9E9",
"O  c #ECECEC",
"+  c #FDFDFD",
"@  c gray93",
"#  c #EAEAEA",
"$  c #F9F9F9",
"%  c gray61",
"&  c #2D2D2D",
"*  c gray17",
"=  c gray16",
"-  c #838383",
";  c gray30",
":  c #2A2A2A",
">  c gray39",
",  c #4C4C4C",
"<  c #323232",
"1  c #C8C8C8",
"2  c gray77",
"3  c #1B1B1B",
"4  c black",
"5  c gray18",
"6  c #DADADA",
"7  c #E7E7E7",
"8  c #252525",
"9  c #202020",
"0  c gray73",
"q  c #060606",
"w  c #BCBCBC",
"e  c gray90",
"r  c #3C3C3C",
"t  c gray8",
"y  c #B7B7B7",
"u  c #272727",
"i  c #0B0B0B",
"p  c #A4A4A4",
"a  c #F1F1F1",
"s  c gray20",
"d  c gray3",
"f  c #F8F8F8",
"g  c #686868",
"h  c #040404",
"j  c #898989",
"k  c gray45",
"l  c gray94",
"z  c #989898",
"x  c #070707",
"c  c #5A5A5A",
"v  c #F3F3F3",
"b  c gray27",
"n  c #EFEFEF",
"m  c gray19",
"M  c gray86",
"N  c gray13",
"B  c #CBCBCB",
"V  c #E4E4E4",
"C  c #131313",
"Z  c gray15",
"A  c gray63",
"S  c gray1",
"D  c #6F6F6F",
"F  c gray98",
"G  c gray35",
"H  c #6C6C6C",
"J  c gray96",
"K  c #E6E6E6",
"L  c #DFDFDF",
"P  c gray14",
"I  c #151515",
"U  c #CDCDCD",
"Y  c #020202",
"T  c gray51",
"R  c #888888",
"E  c #090909",
"W  c gray33",
"Q  c gray78",
"!  c #1D1D1D",
"~  c #D8D8D8",
"^  c #C3C3C3",
"/  c #2F2F2F",
"(  c #3F3F3F",
")  c #111111",
"_  c #B2B2B2",
"`  c #B6B6B6",
"'  c gray42",
"]  c #848484",
"[  c #FEFEFE",
"{  c #676767",
"}  c #9B9B9B",
"|  c #565656",
" . c gray95",
".. c #979797",
"X. c #585858",
"o. c #C6C6C6",
"O. c gray85",
"+. c #313131",
"@. c #DDDDDD",
"#. c gray7",
"$. c #B4B4B4",
"%. c gray24",
"&. c gray56",
"*. c #6D6D6D",
"=. c gray",
"-. c gray9",
";. c #191919",
":. c #343434",
">. c #E2E2E2",
",. c gray91",
"<. c #282828",
"1. c #101010",
"2. c gray80",
"3. c gray75",
"4. c gray81",
"5. c gray74",
"6. c #393939",
"7. c #1E1E1E",
"8. c #BDBCBD",
"9. c gray71",
"0. c #CECECE",
"q. c #F6F6F6",
"w. c gray34",
"e. c gray43",
"r. c #5D5D5D",
"t. c gray4",
"y. c #181818",
"u. c #808080",
"i. c #ACACAC",
"p. c #9D9C9D",
"a. c #9D9D9D",
"s. c #A2A2A2",
"d. c gray62",
"f. c #161616",
"g. c #1D1C1D",
"h. c gainsboro",
"j. c gray10",
"k. c gray21",
"l. c gray88",
"z. c #FBFBFB",
/* pixels */
"                                                                                                                                ",
"                                                                                                                                ",
"                                                                                                                                ",
"                                                                                                                                ",
"                                                                                                                                ",
"                                                                                                                                ",
"                                                                                                                                ",
"                                                                                                                                ",
"                                                                                                                                ",
"                                                                                                                                ",
"                                                                                                                                ",
"                                                                                                                                ",
"                                                    . X o o o o o O +   + @ o # # # # o X # # # # # # $                         ",
"                                                    % & * * * * = - .   X ; = * * * : > , = * * * : < 1                         ",
"                                                  2 3 4 4 4 4 4 5 6     7 8 4 4 4 4 9 0 < 4 4 4 4 4 q w                         ",
"                                                e r 4 4 4 4 4 t y       7 u 4 4 4 i p a s 4 4 4 4 4 d w                         ",
"                                              f g 4 4 4 4 4 h j         7 u 4 4 4 k . l < 4 4 4 4 4 d w                         ",
"                                              z x 4 4 4 4 4 c v         7 u 4 4 b #   n < 4 4 4 4 4 d w                         ",
"                                            2 3 4 4 4 4 4 m M           7 u 4 N B     n < 4 4 4 4 4 d w                         ",
"                                          V r 4 4 4 4 4 C y             7 Z d A       n < 4 4 4 4 4 d w                         ",
"                                        f g 4 4 4 4 4 S j               7 u D F       n < 4 4 4 4 4 d w                         ",
"                                        z x 4 4 4 4 4 G v               e H 7         l s 4 4 4 4 4 x w                         ",
"                                      2 3 4 4 4 4 4 m M                 J K           L P 4 4 4 4 4 I U                         ",
"                                    V r 4 4 4 4 4 C y                               $ H 4 4 4 4 4 Y T +                         ",
"                                  f g 4 4 4 4 4 S R                                 % E 4 4 4 4 4 W a                           ",
"                                  z x 4 4 4 4 4 G v                               Q ! 4 4 4 4 4 & ~                             ",
"                                ^ 3 4 4 4 4 4 / M                               K ( 4 4 4 4 4 ) _                               ",
"                              V r 4 4 4 4 4 C `                               $ ' 4 4 4 4 4 S ] [                               ",
"                            f { 4 4 4 4 4 S R                                 } d 4 4 4 4 4 |  .                                ",
"                            ..x 4 4 4 4 4 X.v                               o.! 4 4 4 4 4 5 O.                                  ",
"                          ^ 3 4 4 4 4 4 +.@.                              K ( 4 4 4 4 4 #.$.                                    ",
"                        7 %.4 4 4 4 4 d &.M ~ ~ ~ ~ ~ ~ ~ ~ ~ ~ ~ @.F   F *.4 4 4 4 4 Y ]           [ .                         ",
"                        =.E 4 4 4 4 4 h -.;.;.;.;.;.;.;.;.;.;.;.-.:.>.  ,.<.4 4 4 4 4 1.2.          3.4.                        ",
"                        5.E 4 4 4 4 4 4 4 4 4 4 4 4 4 4 4 4 4 4 4 ! L   7 <.4 4 4 4 4 1.U         M 6.0                         ",
"                        5.d 4 4 4 4 4 4 4 4 4 4 4 4 4 4 4 4 4 4 4 7.L   7 u 4 4 4 4 4 1.U       v X.q 8.                        ",
"                        5.d 4 4 4 4 4 4 4 4 4 4 4 4 4 4 4 4 4 4 4 7.L   7 u 4 4 4 4 4 1.U       R S d w                         ",
"                        5.d 4 4 4 4 4 4 4 4 4 4 4 4 4 4 4 4 4 4 4 7.L   7 u 4 4 4 4 4 1.U     9.C 4 d w                         ",
"                        5.d 4 4 4 4 4 4 4 4 4 4 4 4 4 4 4 4 4 4 4 7.L   7 u 4 4 4 4 4 1.U   6 / 4 4 d w                         ",
"                        w h 4 4 4 4 4 4 4 4 4 4 4 4 4 4 4 4 4 4 4 7.L   7 u 4 4 4 4 4 1.0.q.w.4 4 4 d w                         ",
"                        O.k e.e.e.e.e.e.e.e.e.e.e.D r.t.4 4 4 4 4 7.L   7 u 4 4 4 4 4 ) 2.j S 4 4 4 d w                         ",
"                                                    O.y.4 4 4 4 4 7.L   7 <.4 4 4 4 4 #.u.I 4 4 4 4 E 5.                        ",
"                                                    ~ y.4 4 4 4 4 7.L   q.i.p.a.a.a.a.s.i.% d.d.d.a.A K                         ",
"                                                    ~ y.4 4 4 4 4 7.L                                                           ",
"                                                    ~ y.4 4 4 4 4 7.L                                                           ",
"                                                    ~ y.4 4 4 4 4 7.L                                                           ",
"                                                    ~ y.4 4 4 4 4 7.L                                                           ",
"                                                    ~ y.4 4 4 4 4 7.L                                                           ",
"                                                    ~ f.4 4 4 4 4 g.L                                                           ",
"                                                    h.+.j.3 3 3 j.k.>.                                                          ",
"                                                    $ L M M M M M l.z.                                                          ",
"                                                                                                                                ",
"                                                                                                                                ",
"                                                                                                                                ",
"                                                                                                                                ",
"                                                                                                                                ",
"                                                                                                                                ",
"                                                                                                                                ",
"                                                                                                                                ",
"                                                                                                                                ",
"                                                                                                                                ",
"                                                                                                                                ",
"                                                                                                                                ",
"                                                                                                                                ",
"                                                                                                                                "
};
