/* XPM */
static char *_8f6fe0d95c0465c84c0a607c4d5c42cpmWU5WLQPwtjaVBZ[] = {
/* columns rows colors chars-per-pixel */
"64 64 256 2 ",
"   c black",
".  c #010101",
"X  c #020202",
"o  c gray1",
"O  c #040404",
"+  c gray2",
"@  c #060606",
"#  c #070707",
"$  c gray3",
"%  c #090909",
"&  c gray4",
"*  c #0B0B0B",
"=  c #0C0C0C",
"-  c gray5",
";  c #0E0E0E",
":  c gray6",
">  c #101010",
",  c #111111",
"<  c gray7",
"1  c #131313",
"2  c gray8",
"3  c #151515",
"4  c #161616",
"5  c gray9",
"6  c #181818",
"7  c #191919",
"8  c gray10",
"9  c #1B1B1B",
"0  c gray11",
"q  c #1D1D1D",
"w  c #1E1E1E",
"e  c gray12",
"r  c #202020",
"t  c gray13",
"y  c #222222",
"u  c #232323",
"i  c gray14",
"p  c #252525",
"a  c gray15",
"s  c #272727",
"d  c #282828",
"f  c gray16",
"g  c #2A2A2A",
"h  c gray17",
"j  c #2C2C2C",
"k  c #2D2D2D",
"l  c gray18",
"z  c #2F2F2F",
"x  c gray19",
"c  c #313131",
"v  c #323232",
"b  c gray20",
"n  c #343434",
"m  c #353535",
"M  c gray21",
"N  c #373737",
"B  c gray22",
"V  c #393939",
"C  c #3A3A3A",
"Z  c gray23",
"A  c #3C3C3C",
"S  c gray24",
"D  c #3E3E3E",
"F  c #3F3F3F",
"G  c gray25",
"H  c #414141",
"J  c gray26",
"K  c #434343",
"L  c #444444",
"P  c gray27",
"I  c #464646",
"U  c gray28",
"Y  c #484848",
"T  c #494949",
"R  c gray29",
"E  c #4B4B4B",
"W  c #4C4C4C",
"Q  c gray30",
"!  c #4E4E4E",
"~  c gray31",
"^  c #505050",
"/  c #515151",
"(  c gray32",
")  c #535353",
"_  c gray33",
"`  c #555555",
"'  c #565656",
"]  c gray34",
"[  c #585858",
"{  c gray35",
"}  c #5A5A5A",
"|  c #5B5B5B",
" . c gray36",
".. c #5D5D5D",
"X. c gray37",
"o. c #5F5F5F",
"O. c #606060",
"+. c gray38",
"@. c #626262",
"#. c gray39",
"$. c #646464",
"%. c #656565",
"&. c gray40",
"*. c #676767",
"=. c #686868",
"-. c DimGray",
";. c #6A6A6A",
":. c gray42",
">. c #6C6C6C",
",. c #6D6D6D",
"<. c gray43",
"1. c #6F6F6F",
"2. c gray44",
"3. c #717171",
"4. c #727272",
"5. c gray45",
"6. c #747474",
"7. c gray46",
"8. c #767676",
"9. c #777777",
"0. c gray47",
"q. c #797979",
"w. c gray48",
"e. c #7B7B7B",
"r. c #7C7C7C",
"t. c gray49",
"y. c #7E7E7E",
"u. c gray50",
"i. c #808080",
"p. c #818181",
"a. c gray51",
"s. c #838383",
"d. c #848484",
"f. c gray52",
"g. c #868686",
"h. c gray53",
"j. c #888888",
"k. c #898989",
"l. c gray54",
"z. c #8B8B8B",
"x. c gray55",
"c. c #8D8D8D",
"v. c #8E8E8E",
"b. c gray56",
"n. c #909090",
"m. c gray57",
"M. c #929292",
"N. c #939393",
"B. c gray58",
"V. c #959595",
"C. c gray59",
"Z. c #979797",
"A. c #989898",
"S. c gray60",
"D. c #9A9A9A",
"F. c #9B9B9B",
"G. c gray61",
"H. c #9D9D9D",
"J. c gray62",
"K. c #9F9F9F",
"L. c #A0A0A0",
"P. c gray63",
"I. c #A2A2A2",
"U. c gray64",
"Y. c #A4A4A4",
"T. c #A5A5A5",
"R. c gray65",
"E. c #A7A7A7",
"W. c gray66",
"Q. c #A9A9A9",
"!. c #AAAAAA",
"~. c gray67",
"^. c #ACACAC",
"/. c gray68",
"(. c #AEAEAE",
"). c #AFAFAF",
"_. c gray69",
"`. c #B1B1B1",
"'. c #B2B2B2",
"]. c gray70",
"[. c #B4B4B4",
"{. c gray71",
"}. c #B6B6B6",
"|. c #B7B7B7",
" X c gray72",
".X c #B9B9B9",
"XX c gray73",
"oX c #BBBBBB",
"OX c #BCBCBC",
"+X c gray74",
"@X c gray",
"#X c gray75",
"$X c #C0C0C0",
"%X c #C1C1C1",
"&X c gray76",
"*X c #C3C3C3",
"=X c gray77",
"-X c #C5C5C5",
";X c #C6C6C6",
":X c gray78",
">X c #C8C8C8",
",X c gray79",
"<X c #CACACA",
"1X c #CBCBCB",
"2X c gray80",
"3X c #CDCDCD",
"4X c #CECECE",
"5X c gray81",
"6X c #D0D0D0",
"7X c gray82",
"8X c #D2D2D2",
"9X c LightGray",
"0X c gray83",
"qX c #D5D5D5",
"wX c gray84",
"eX c #D7D7D7",
"rX c #D8D8D8",
"tX c gray85",
"yX c #DADADA",
"uX c gray86",
"iX c gainsboro",
"pX c #DDDDDD",
"aX c gray87",
"sX c #DFDFDF",
"dX c gray88",
"fX c #E1E1E1",
"gX c #E2E2E2",
"hX c gray89",
"jX c #E4E4E4",
"kX c gray90",
"lX c #E6E6E6",
"zX c #E7E7E7",
"xX c gray91",
"cX c #E9E9E9",
"vX c #EAEAEA",
"bX c gray92",
"nX c #ECECEC",
"mX c gray93",
"MX c #EEEEEE",
"NX c #EFEFEF",
"BX c gray94",
"VX c #F1F1F1",
"CX c gray95",
"ZX c #F3F3F3",
"AX c #F4F4F4",
"SX c gray96",
"DX c #F6F6F6",
"FX c gray97",
"GX c #F8F8F8",
"HX c #F9F9F9",
"JX c gray98",
"KX c #FBFBFB",
"LX c gray99",
"PX c #FDFDFD",
"IX c #FEFEFE",
"UX c white",
/* pixels */
"UXUXUXUXUXUXUXUXUXUXUXUXUXUXUXUXUXUXUXUXUXUXUXUXUXUXUXUXUXUXUXUXUXUXUXUXUXUXUXUXUXUXUXUXUXUXUXUXUXUXUXUXUXUXUXUXUXUXUXUXUXUXUXUX",
"UXUXUXUXUXUXUXUXUXUXUXUXUXUXUXUXUXUXUXUXUXUXUXUXUXUXUXUXUXUXUXUXUXUXUXUXUXUXUXUXUXUXUXUXUXUXUXUXUXUXUXUXUXUXUXUXUXUXUXUXUXUXUXUX",
"UXUXJ.o.@.@.@.@.@.@.@.@.@.@.@.@.@.O.9.BXUXS.o.@.@.@.@.@.@.o.h.HXUXUXUX XX.e.ZXUXB. .S.UXBX9.O.@.@.@.@.@.@.@.@.@.@.@.@.@.o.J.UXUX",
"UXUXo.                              w lXUX_                 V JXUXUXUXj.  t vXUX~   ] UXlXw                               o.UXUX",
"UXUX@.  4 T R R R R R R R R R W h   u lXUXl.U R R R R E t   g (. XMXUX(.I *.VXIX(   } UXlXu   h W R R R R R R R R R T 4   @.UXUX",
"UXUX@.  T GXKXLXLXLXLXLXLXLXLXUXN.  u lXUXPXKXLXLXLXKXIX3.  . X = -XUXIXKXLXUXIX/   { UXlXu   N.UXLXLXLXLXLXLXLXLXKXGXT   @.UXUX",
"UXUX@.  R KXIXCXNXNXNXNXNXNXKXUXV.  u lXUXUXUXJXNXBXPXUX5.  O : 6 oXCXDXUXPXBXmX[ $ $.UXlXu   V.UXKXNXNXNXNXNXNXCXIXKXR   @.UXUX",
"UXUX@.  R LXCX_ j l l l l b >XUXV.  u lXUXUXUXOXz F aXUX5.  c <X1X_ d x.UXaXF l H.9XfXUXlXu   V.UX>Xb l l l l j _ CXLXR   @.UXUX",
"UXUX@.  R LXNXj           o oXUXV.  u lXUXUXUX~.  ; tXUX6.  S PXPXZ   3.UXwX;   _.UXUXUXlXu   V.UXoXo           j NXLXR   @.UXUX",
"UXUX@.  R LXNXl           @ OXUXV.  u lXUXUXUXeXf.s.t.t.N   q 9.9.q   5.UXnXv.s.y.q.!.UXlXu   V.UXOX@           l NXLXR   @.UXUX",
"UXUX@.  R LXNXl           @ OXUXV.  u lXUXUXUXUXUXNXp                 4.UXUXUXUX^   ] UXlXu   V.UXOX@           l NXLXR   @.UXUX",
"UXUX@.  R LXNXl           @ OXUXV.  u lXUXUXUXUXUXbXd           X d b 0.2X9XKXIX(   } UXlXu   V.UXOX@           l NXLXR   @.UXUX",
"UXUX@.  R LXNXl           @ OXUXV.  u lXUXUXUXUXUXbXd           $ XXKXz.# v nXUX(   } UXlXu   V.UXOX@           l NXLXR   @.UXUX",
"UXUX@.  R LXNXb o @ @ @ @ = @XUXV.  u lXUXUXUXPXJXlXk O o   . @ : %XUXx.  k bXUX(   } UXlXu   V.UX@X= @ @ @ @ o b NXLXR   @.UXUX",
"UXUX@.  R LXKX>XoXOXOXOXOX@XMXUXV.  u lXUXUXUX*XK W Q.$X`   j }. Xo.F q.+X:XJXIX(   } UXlXu   V.UXMX@XOXOXOXOXoX>XKXLXR   @.UXUX",
"UXUX@.  W UXUXUXUXUXUXUXUXUXUXUXA.  u lXUXUXUX(.  - pXUX6.  C UXUXN   4.UXUXUXPX(   } UXlXu   A.UXUXUXUXUXUXUXUXUXUXUXW   @.UXUX",
"UXUX@.  h N.V.V.V.V.V.V.V.V.V.A.]   u lXUXXXB.h.;.,.v.C.t.-.6.N.N.6.-.t.B.R.FXIX(   } UXlXu   ] A.V.V.V.V.V.V.V.V.V.N.h   @.UXUX",
"UXUXO.                              t lXUX[   ( UXNXp   x.UX=XO O ;XUXc.  i bXUX(   } UXlXt                               O.UXUX",
"UXUX9.w u u u u u u u u u u u u u t G vXUX}   U iX4XG w G.UX1Xg f `.hXk.w P MXIX(   } UXvXG t u u u u u u u u u u u u u w 9.UXUX",
"UXUXBXlXlXlXlXlXlXlXlXlXlXlXlXlXlXlXvXPXUX}   $ 5 f ;XxXAXUXHXxXsXT < 7.cXvXPXPX(   } UXPXvXlXlXlXlXlXlXlXlXlXlXlXlXlXlXlXBXUXUX",
"UXUXUXUXUXUXUXUXUXUXUXUXUXUXUXUXUXUXUXUXUX}       1 rXUXUXUXUXUXFXZ   4.UXUXUXPX(   } UXUXUXUXUXUXUXUXUXUXUXUXUXUXUXUXUXUXUXUXUX",
"UXUXS.] } { $.fXUX!.] } } X.0XUXXX] 2.NXUX-XE.2.  2 eXUXY.] } }  .B.W.s.] 6.CXIX(   } UXNX2.] XXUXUXUXUXUXUXUXUXUXUXPXl._ S.UXUX",
"UXUXo.      # 5XUX8.        XXUXm.  8 lXUXUXUX'.  > yXUX4.        >XUXb.  p NXUX^   ] UXlX8   B.UXUXUXUXUXUXUXUXUXUXUXP    .UXUX",
"UXUX@.  6 ^ ..dXUXT.~ ( ( ' 8XUX|.~ -.MXUX<X/.n.( { K._.!   1 ~ ` A.'.o.  9 L./.1.Q b.UXMX-.~ h.)./././././././././.^.>.Q B.UXUX",
"UXUX+.  T JXIXUXUXIXPXPXPXPXUXUXUXUXUXUXUX}   ( IXbXd       Z SXSXS         . o /.UXUXUXUXIXUX;.  .     . X .       O {.UXUXUXUX",
"UXUX<.= [ LXUXUXUXUXUXUXUXUXBXbXbXbXMXPXUX*.= { bXyXM < %   A DXDXA   % 3 , X . L.NXCXUXUXUXUX;.  + 2 1 O   & 2 2 2 5 ^.MXZXUXUX",
"UXUXlXqXgXIXUXUXUXUXUXUXUXJXO.p d a P vXUXkXtXK.d M oXuX+.  A DXDXA   +.iX{.,   9 p 6.UXUXUXUX;.  B 8X3Xj   =.yXeXeX0X| t e.UXUX",
"UXUXUXUXUXUXUXUXUXUXUXUXUXLXJ       q lXUXUXUX).  : rXUX6.  A DXDXV   5.UXuX<       ' UXUXUXUX;.  K LXSXm   y.UXUXUXUXR   O.UXUX",
"UXUXW.<.F.PXUXUXUXUXUXgXw.1.w   C c.G.AXUXY.2.e.x.V.mXUX5.  A DXKXE.z.p.4.9.l.c.x.l.{.UXUXUXUX;.  K HXZXm   N 6.5.5.3.t   @.UXUX",
"UXUXo.  U KXUXUXUXUXUX,X$       :.UXUXUXUX'   ~ UXUXUXUX6.  S HXUXUXUXz.  u CXUXUXUXUXUXUXUXUX>.  K JXZXv                 @.UXUX",
"UXUX@.  R KXKX4X&XgXUX<X= . j C 6.-X*X*X*X:.N *.&X*X*X;X[   l OX;XVXUXE.B / .X=XnXUXUXUXHX1X-X/   K HXDX$.V A A A A Z ,   @.UXUX",
"UXUX@.  R LXBXM X j.UX1X= + }.UXN.@ % % % I.UX!.* % % % O   X $ , -XUXKXHX7X0 & _.UXUXUXxXg # o   K HXUXGXDXDXDXDXDXZXU   +.UXUX",
"UXUX@.  R LXNXl   u.PX*X= + }.UXN.@ % % % Q.UX/..           X $ , -XUXKXHX5X1   E.JXDXFXsXf # % + U BXFXIXUXUXUXIXFXZX!   *.UXUX",
"UXUX@.  R LXNXl   e S z o . j C 6.-X*X*X*XvXUX/.X           l OX;XVXUXE.C v +   d S A Z T `.-X*X;XL.D P eXUXUXUXuXY S G.-XyXUXUX",
"UXUX@.  E UXZXz                 :.UXUXUXUXUXUX).            V HXUXUXUXc.                < hXUXUXUX@XX % 3XUXUXUX0X-   XXUXUXUXUX",
"UXUX@.  f z.d.8   Z 7.5.5.2.w   C v.x.x.x.x.c.d.5.5.5.5.5.3.N.JXKXE.c.Q             d 4.7.k.z.5XUXOX@ # 1.v.x.v.5.% X $.c. XUXUX",
"UXUX@.            d.UXUXUXLXJ                 / UXUXUXUXUXUXUXUXGXB                 { UXcXw   B.UX+XO                     O.UXUX",
"UXUX@.  = d d d p Z.UXUXUXJXO.p d d d d d ;   P qXyXHXUXUXUXDXtX6X/ a d d d d d d i 6.UXvXP p v.pXQ.k a $       # a d =   @.UXUX",
"UXUX@.  L zXbXbXbXSXUXUXUXUXBXbXbXbXbXbXbX)   @ 1 s yXUXUXUX>X0 9 .XMXbXbXbXbXbXbXbXCXUXPXMXmX<.- W lXdXc       h iXxXL   @.UXUX",
"UXUX@.  E PXUXUXUXUXPXPXPXPXIXUXUXUXUXUXUX}       1 qXUXIXUX*X# # *XUXUXUXUXUXUXUXUXIXPXPXIXUX-.  J HXZXM   .   l NXLXE   #.UXUX",
"UXUX@.  R KXUXUXUXT.~ ( ( ( ( ( ( ( ( ( ( q       @ P ^ `.UX*X% X F ) ( ( ( ( ( ( ( ( ( ( ( ) y   3 ^ ' D.`.}   : Q ) N./.3XUXUX",
"UXUXo.  U KXUXUXUX8.                                    z.UX;X+                                       $ 3XUXg.        |.UXUXUXUX",
"UXUXS._ l.PXUXUXUX!.] } } } } } } } } } } r       # W } s.W.B...' 3   d  .W #       r } } } } } | J . = <XUXd.      O {.UXUXUXUX",
"UXUXUXUXUXUXUXUXUXUXUXUXUXUXUXUXUXUXUXUXUX{       1 rXUX5.  A GXGXZ   4.UXeX1       } UXUXUXUXUXUXOX@ = <XUXs.      X }.UXUXUXUX",
"UXUXBXlXlXlXlXlXlXlXlXlXlXlXlXlXlXlXvXPXUX;.2 7 5 f ;XnX=.  M sXdXT , i.UXuXh 5 $   } UXPXvXlXSXUXOX@ = <XUXn.3 7 6 0 ~.vXBXUXUX",
"UXUX9.w u u u u u u u u u u u u u t G vXUXcXiXiXpX4XG t >   $ t f `.sXnXUXJXsXuXU   } UXvXG w U.UXOX@ = <XUXMXiXiXpXyX{ 9 9.UXUX",
"UXUXO.                              t lXUXUXUXUXUXNXp           # ;XUXUXUXUXUXUX)   } UXlXw   N.UXOX@ = <XUXUXUXUXUXPXT   O.UXUX",
"UXUX@.  h N.V.V.V.V.V.V.V.V.V.A.]   u lXUXUXUX5X:.,.v.Z.K       O / -./.UXxX8.-.y   } UXSXU.N.9XUXOX@ = <XUXUXUXUXUXKXR   @.UXUX",
"UXUX@.  W UXUXUXUXUXUXUXUXUXUXUXA.  u lXUXUXUX(.  > pXUX6.            2.UXtX>       | UXUXUXUXUXUX#X@ = <XUXUXUXUXUXUXY   o.UXUX",
"UXUX@.  R LXKX>XoXOXOXOXOX@XMXUXV.  u lXUX0X@Xi.  : K.$Xq.J b X X b J q.$XK.:       J OXOXOXOXOX#Xz.O = <XUXUXUXZX%XXX&.S z.UXUX",
"UXUX@.  R LXNXb o @ @ @ @ = @XUXV.  u lXUXX.X O     + X x.UX#X$ $ @XUXz.X +         X @ @ @ @ @ @ O   = <XUXUXUX8X4 % ].IXLXUXUX",
"UXUX@.  R LXNXl           @ OXUXV.  u lXUX}   O = = = % z.JX+X2 3 :XUXM.% = = = = - $         # = = = 6 3XUXUXUX7X> X ^.FXGXUXUX",
"UXUX@.  R LXNXl           @ OXUXV.  u lXUX}   H ,X<X<X2X0.x [ -X2XZXUXzX<X<X<X<X<X4Xs.        8.4X<X<X3XAXUXUXUX7X>   p v a.UXUX",
"UXUX@.  R LXNXl           @ OXUXV.  u lXUX]   / UXUXUXUX4.  C HXUXUXUXUXUXUXUXUXUXUXQ.        V.UXUXUXUXUXUXUXUX0X>       O.UXUX",
"UXUX@.  R LXNXl           @ OXUXV.  u lXUX!.q.y.s.v.nXUX5.  A DXUXUXUX>Xp.Z.SXUX~.a.p.e.e.e.w.>XUXsXh.d.d.d.d.f.>.$       @.UXUX",
"UXUX@.  R LXNXj           o oXUXV.  u lXUXUXUX`.  > wXUX5.  A DXUXUXUXk.  y vXUXQ   ] UXUXUXUXUXUX+Xo                     @.UXUX",
"UXUX@.  R LXCX_ j l l l l b >XUXV.  u lXUXfX0Xv.  2 eXUX5.  A DXUXUXUXP.g ~ NXUX3.s 0.UXKXeX6X7X0XD.+ X p x 6             @.UXUX",
"UXUX@.  R KXIXCXNXNXNXNXNXNXKXUXV.  u lXUX$.= *   2 eXUX5.  A DXUXUXUXGXNXCXIXUXAXMXSXUXxXx ; > > =   * @XDXr.            @.UXUX",
"UXUX@.  T GXKXLXLXLXLXLXLXLXLXUXN.  u lXUX{       2 eXUX5.  A DXUXUXUXIXLXPXUXUXPXLXPXUXlXy   . o o o > ,XUXd.  O O O .   @.UXUX",
"UXUX@.  4 T R R R R R R R R R W h   u lXUX}       2 eXUX5.  A DXUXUXUX(.I *.VXUXd.L l.UXlXu   ;. X{.{._.O.U y.}.{.{.'.m   @.UXUX",
"UXUXo.                              w lXUX]       > wXUX2.  B DXUXUXUXj.  t vXUXW   _ UXlXw   V.UXUXUXDXl   q.UXUXUXUXY   o.UXUX",
"UXUXJ.o.@.@.@.@.@.@.@.@.@.@.@.@.@.O.9.BXUXS.o.@.+.<.lXUXW...h.HXUXUXUX XX.e.ZXUXB. .S.UXBX9.o.@XUXUXUXFXa...(.UXUXUXPXn. .J.UXUX",
"UXUXUXUXUXUXUXUXUXUXUXUXUXUXUXUXUXUXUXUXUXUXUXUXUXUXUXUXUXUXUXUXUXUXUXUXUXUXUXUXUXUXUXUXUXUXUXUXUXUXUXUXUXUXUXUXUXUXUXUXUXUXUXUX",
"UXUXUXUXUXUXUXUXUXUXUXUXUXUXUXUXUXUXUXUXUXUXUXUXUXUXUXUXUXUXUXUXUXUXUXUXUXUXUXUXUXUXUXUXUXUXUXUXUXUXUXUXUXUXUXUXUXUXUXUXUXUXUXUX"
};
