/* XPM */
static char *db44c9a64d5648fac7894bbbbad443e1uziZ1tROGG0L0p6N[] = {
/* columns rows colors chars-per-pixel */
"64 64 248 2 ",
"   c #030302",
".  c #0B0502",
"X  c #050904",
"o  c #0B0B05",
"O  c #050B0B",
"+  c #0C0C0C",
"@  c #0A0609",
"#  c #140401",
"$  c #130A04",
"%  c #130D0B",
"&  c #190A06",
"*  c #0D110C",
"=  c #04160B",
"-  c #13120D",
";  c #1C140C",
":  c #191508",
">  c #0D0E11",
",  c #070F12",
"<  c #140F10",
"1  c #0E1313",
"2  c #0A1E15",
"3  c #141413",
"4  c #1A1613",
"5  c #151914",
"6  c #1A1A15",
"7  c #161619",
"8  c #151A1B",
"9  c #1B1B1A",
"0  c #1A161B",
"q  c #260500",
"w  c #261609",
"e  c #241C14",
"r  c #221D1B",
"t  c #261815",
"y  c #36190C",
"u  c #0B2618",
"i  c #14231B",
"p  c #1C231C",
"a  c #18271A",
"s  c #22221D",
"d  c #2B241A",
"f  c #372517",
"g  c #1C1E21",
"h  c #1B2921",
"j  c #173727",
"k  c #232322",
"l  c #242C23",
"z  c #2C2E2B",
"x  c #2A2926",
"c  c #352A27",
"v  c #28362A",
"b  c #33332D",
"n  c #38382D",
"m  c #2E3833",
"M  c #333432",
"N  c #3B3B34",
"B  c #383A36",
"V  c #2E2F33",
"C  c #201B21",
"Z  c #511A17",
"A  c #482719",
"S  c #47352B",
"D  c #563B2C",
"F  c #453B37",
"G  c #553D38",
"H  c #4F2A26",
"J  c #6E3331",
"K  c #61241C",
"L  c #2C4638",
"P  c #3C4A3A",
"I  c #364437",
"U  c #3B4A36",
"Y  c #43423C",
"T  c #4B453A",
"R  c #504C3D",
"E  c #674737",
"W  c #744A39",
"Q  c #6B503F",
"!  c #3D3E40",
"~  c #394C41",
"^  c #3B5347",
"/  c #4C4B45",
"(  c #474A46",
")  c #564B46",
"_  c #445443",
"`  c #48574B",
"'  c #53534C",
"]  c #58584D",
"[  c #4D5D53",
"{  c #455A50",
"}  c #555553",
"|  c #545B53",
" . c #5A5B56",
".. c #584F55",
"X. c #634843",
"o. c #68544B",
"O. c #795746",
"+. c #665A56",
"@. c #76504D",
"#. c #56624D",
"$. c #4C6658",
"%. c #536355",
"&. c #54645A",
"*. c #5C635C",
"=. c #576859",
"-. c #5D705B",
";. c #62645D",
":. c #67685B",
">. c #76665A",
",. c #64725C",
"<. c #5B6861",
"1. c #5A7064",
"2. c #6B6B64",
"3. c #686764",
"4. c #756966",
"5. c #6C7466",
"6. c #74746B",
"7. c #777469",
"8. c #7A7B73",
"9. c #7D7D7A",
"0. c #737777",
"q. c #873737",
"w. c #922C2F",
"e. c #AB383F",
"r. c #80573B",
"t. c #AC3F44",
"y. c #855B46",
"u. c #8D504C",
"i. c #8A6859",
"p. c #966B57",
"a. c #9D725C",
"s. c #8A604B",
"d. c #A8795D",
"f. c #846861",
"g. c #987968",
"h. c #827B77",
"j. c #907570",
"k. c #A8776F",
"l. c #778478",
"z. c #82827D",
"x. c #8B857B",
"c. c #958379",
"v. c #9C836F",
"b. c #AC826D",
"n. c #B4856A",
"m. c #A88878",
"M. c #B78B77",
"N. c #BA927D",
"B. c #C2937B",
"V. c #C18E76",
"C. c #817F82",
"Z. c #7F8E88",
"A. c #838483",
"S. c #8A8A85",
"D. c #8A8B8C",
"F. c #868787",
"G. c #988A86",
"H. c #95938C",
"J. c #8E8F92",
"K. c #8E9593",
"L. c #919394",
"P. c #9B9C9C",
"I. c #979998",
"U. c #8B948D",
"Y. c #A98C84",
"T. c #B58A86",
"R. c #AC9487",
"E. c #B89787",
"W. c #A49B96",
"Q. c #B89994",
"!. c #97A29C",
"~. c #A3A29D",
"^. c #ACA498",
"/. c #B8A59A",
"(. c #9A9EA2",
"). c #979CA0",
"_. c #9DA1A5",
"`. c #9EA4A7",
"'. c #A2A5AA",
"]. c #A5A8A8",
"[. c #B5A9A3",
"{. c #A6ABB1",
"}. c #B8B8B6",
"|. c #B5B2AD",
" X c #A19FA0",
".X c #C69985",
"XX c #CE9594",
"oX c #CAA28B",
"OX c #C7A797",
"+X c #D5A896",
"@X c #D4AB90",
"#X c #C5A9A4",
"$X c #D6AAA4",
"%X c #C6B5AB",
"&X c #D6B8A8",
"*X c #C3BCB8",
"=X c #D8BCB4",
"-X c #E9B7B4",
";X c #BFC1B6",
":X c #C5C4BC",
">X c #CBC5BC",
",X c #CBC9BB",
"<X c #D7C8BA",
"1X c #EACFBD",
"2X c #BFC8C3",
"3X c #CCCBC4",
"4X c #CDCDCA",
"5X c #C7C6C4",
"6X c #D2CCC3",
"7X c #D2CECB",
"8X c #DACBC7",
"9X c #CDD2C9",
"0X c #D4D3C5",
"qX c #DAD9C5",
"wX c #D4D3CC",
"eX c #DAD6CB",
"rX c #D9D9CD",
"tX c #DDDBCD",
"yX c #D8D6C9",
"uX c #D7D6D1",
"iX c #D4D3D3",
"pX c #DAD6D2",
"aX c #D4DAD4",
"sX c #DCDBD3",
"dX c #DBDCDA",
"fX c #D7D8D9",
"gX c #D0D3D1",
"hX c #E7CBC9",
"jX c #E2DCCE",
"kX c #E8D4C9",
"lX c #F5D5CB",
"zX c #E2DED2",
"xX c #E6DCD6",
"cX c #F9D9D6",
"vX c #FFC6C7",
"bX c #DBE0DB",
"nX c #E1E0CE",
"mX c #E4E1D5",
"MX c #E4E2DA",
"NX c #E9E4DA",
"BX c #EBE7DA",
"VX c #F5E7D8",
"CX c #DEDFE2",
"ZX c #E7E7E2",
"AX c #F3EDE4",
"SX c #F5F4EA",
"DX c #FDFDF6",
"FX c #E5E0E3",
/* pixels */
"7XwXwXwXwXwXwXwXuXuXuXuXuXuXuXuX5X}. XD.A.9.A.S.A.D.L.H.S.z.A.D.z.l.A.D.I.~.~.~.P.P.!.!.!.!.!.!._.(.).P.P.(.(._.`.`.'.{.{.{.'.'.",
"wXwXwXwXwXwXuXuXuXuXuXuXuXuXuXuXMXdXiX5X}.~.D.h.A.9.9.z.S.D.S.z.z.A.A.z.z.A.H.P.~.~.!.!.!.!.!.!._._._._._.(.).P.(.(.`.`.'.{.{.{.",
"wXwXwXwXwXwXwXwXwXwXwXwXrXuXwXuXuXuXdXdXdXuX5X}.!.I.H.S.A.A.z.z.A.F.S.A.z.9.h.A.D.J.L.P._.'._.!.!.(.(._._._._._.(.(.(.(.`.'.{.{.",
"wXwXwXwXwXwXuXrXwXwXwXwXuXrXwXwXwXuXuXuXuXdXdXdXsXwX}.].H.F.A.A.S.z.h.z.A.A.A.9.9.z.S.H.I.P.P._._._.(.(.(._.`.`.`.`.(.(._.`.'.'.",
"wXwXwXwXwXrXrXrXrXrXrXrXrXrXrXrXsXzXdXeXwXwXwX7XwXwXuXdXdX4X|.~.S.S.A.S.D.D.z.8.F.F.F.A.A.F.L.P.`.`.`._.`._._.(.`.`.`.(.`.(.(.(.",
"wXwXwXyXrXrXrXrXrXrXrXrXrXtXrXrXwXrXuXwXeXsXzXdXxXsXwXwXwXuXsXuX7X*X].S.9.9.A.U.A.A.A.A.C.A.F.F.J.L.P._.'.'.`.`.(.`.`.'.'.`.(.`.",
"yXyXyXyXrXtXtXtXtXtXtXtXtXtXtXtXzXzXrXwXeXzXsXwXtXzXMXNXMXzXuXeXwXuXpXwX:X].K.A.F.A.A.F.D.D.D.D.A.F.D.L.P._.`.`.`.`.'.'.'.'.`.`.",
"yXyXyXtXtXtXtXtXtXtXtXtXtXtXtXtXsXsXtXrXzXzX3X|.H.h.:.>.x.[.>XeXsXwXwXwXfXaX9X2X].I.F.Z.D.I.(.P.F.A.A.A.F.J.I.(.'.'.'.'.'.`.`.`.",
"yXyXtXtXtXtXtXtXtXtXtXtXtXtXtXtXyXsXyXBXmX%X:.d e w w d c ) >.o.>XMX:X9XaXaXaXbXbXaX5X}.P.D.F.D.D.D.D.D.D.D.F.F.J.(.].'.(.'.].].",
"yXtXtXtXtXtXtXtXtXtXtXtXtXtXtXtXmXtXAX0Xx.T f d f d d f y f f w :.0XbXdXwXgX9X9XaXfXbXbXfX4X}.'.L.D.D.D.D.D.D.D.D.D.D.L.(.].].'.",
"tXtXtXtXtXtXsXzXsXsXsXsXsXzXzXzXsXtX,X:.c e f f f f f y w y A f >.,X0XwXwXwXwXMX4XwXaXaXdXFXbXgX3X}.].L.F.F.D.J.D.D.D.D.D.L.).].",
"tXtXtXtXtXzXzXzXzXzXzXzXzXzXzXzXmXBXx.: e f f y q A E E E W W Q ^.mX0XyXxXeX>X6XzXsXuXgXgXaXfXbXdXfXaX3X}.].I.D.A.D.L.).L.D.D.L.",
"yXtXtXtXzXzXzXzXzXzXzXzXzXzXzXmXBX:XN ; c f w w y O.N.N.M.M.M.b.R.zXjX6XkXxXhXxX8X8XwXsXdXaXgXaXaXdXbXZXdXaX5X}.].I.J.L.L.J.D.D.",
"yXyXtXtXzXzXzXzXzXzXzXzXzXmXmXmXBX8.o d d w f y y i.E.E.M.N.B.N.m.<XkXkXhXlXhXcXkXhX8XpXsXsXaXaXdXdXaXaXuXdXCXZXdX3X}.'.I.L.L.L.",
"yXeXtXtXsXzXzXzXzXzXmXmXmXmXmXmXSX] o e w e f w D g.oXoX.XV.V.B.R.<XlXcX$XQ.k.k.=XhXcXjXeXuXfXaXfXfXfXdXdXfXaXiXaXCXZXdX5X}.'.P.",
"yXyXeXtXsXzXzXzXmXmXmXmXmXmXmXmXrXN w d S f w A m..X.Xb.p.s.p.n.m.=XkXQ.@.J J J u.T.hXlXhXzXdXaXsXfXuXaXaXuXuXuXiXiXiXiXdXCXfX4X",
"yXyXtXtXtXjXzXzXmXmXzXzXzXmXmXMXdXN & >.N.g.y.s.oX.X.Xb.p.W W s.O.OX&Xy.J w.t.w.w.q.XXcXhXhXMXaXuXdXuXfXuXuXxXwXiXiXiXiXiXiXfXfX",
"yXyXtXtXtXjXzXzXzXzXzXzXmXmXmXmXMXo.# i.M.a.B.B.@XoXM.a.y.W s.g.i.1Xb.K q.w.w.e.w.q.u.$XcXcXuXaXbX4XwXMXuXwXdXuXiXiXiXiXiXiXiXfX",
"yXyXtXtXtXjXmXmXzXzXzXmXmXmXmXmXAXG.& A b..X.XM.B.oXoXN.M.a.M.k.E.1XW W u.q.u.u.XXk.J k.lX8XwXuXdXxXsX7XdXsX4XsXiXiXiXiXiXiXuXuX",
"yXyXtXtXtXjXzXzXzXzXmXmXmXmXmXmXNXeXR.f O.@XM.n.M..X.XN.N.k..Xm.1X&XE T.XXT.-XXXvXcXk.X.*XxXFXdXwXsXdXwXdXdX4XuXiXiXiXiXiXiXiXiX",
"yXyXtXtXtXtXzXzXmXmXmXmXmXmXmXmXmXNXDXg.D oXn.d.V.B.M.n.b.a.b.g.<X%XH k.lXOX<X=XcXcX$Xo.7XCXfXFXAXdXMXsX4XwXpXdXiXiXiXiXiXiXiXiX",
"yXyXtXtXtXtXjXzXmXmXmXmXmXmXmXmXNXmXVX&Xi.@Xd.a.n.N.N.B.n.p.y.i.xX>XH f.kX=X%X<X#Xj.cXG.3.} D.|.S.5X3X5XMXdXiX4XiXiXiXiXiXiXiXiX",
"qXqXqXqXtXtXnXnXmXmXmXmXmXmXBXNXzXAXjXkXoX@Xa.n.b.b.b.b.a.y.W M.xX%XG X.#XcX%X<X#XG hXj.< V ..r k / z M  .8.}.sXwXiXiXiXiXiXiXiX",
"qXqXyXqXtXtXnXnXjXjXzXmXmXBXBXBXBXtXAX<XoX@Xd.y.a.d.k.M.g.p.O.&XVX6Xo.G R.AXY.Q.$Xf.hXQ.G c c ! 3.o - ;.z B 5XuXwXwXiXiXiXiXiXiX",
"nX,XnXqXtXnXmXtXBX0XBXmXSX>X) ] |.AXjX/.E.oXN.r.W i.b.g.m.p.g.lXkXxX>.D i.lXk.k.cX-XcXj.@.& t b } - - 9.3.6.sXwX4XMX5XwXiXuXiXdX",
",XBX,XmXtXtXmXzXmXzXAX>X6.d   o s / 7.^.&XOXM.p.y.E Q i.O.Q m.lXkXkX/.D i.cXk.q.XXcX-X@.H @.7.F N  .M 5X} 3.SX5X4XsX5XwX4X3XdX].",
",XtXyXtXtXmX0XmX0XZX:Xn   s 4 s * o ; o.R.OXoXN.p.D A o.>.>.#XVX<XNXqXD @.XXq.q.q.k.J J i.#X*X:X~.}.S.5X~.P.5XsX4XwX7XwX5X5XuX .",
"tX,XmX,XtXsXrXAXDXMX' o + - 9 o 9 6 o : E v.E.m.R.i.A R <XNXxXjXjX<XjX/.A J q.J K Z J J T.#X[.].|.~.].S.H.ZXdX5X4X4XwX4X3XpX|.k ",
"wXtXyXwXrX0XAX:Xz.z - 6 9 9 < 7 O 9 4 . q D i.m.j.) w $ *XBXeXtXjX,XqXlXi.K J Z y Z Z H =X[.2.6.}.9X3X3X*XwX3X7X3X4XwX5XwXMX8.o ",
"wXrX3XtXsXBX~./ . 4 o 9 0 + k > 8 3 4 $ # w S f.>.e $ r }.ZXMXMXuXtX0X<XkXk.J J H q q G S : B s 6 ~.MX5XdXwXuXwX4X4X7X5XuX7XY o ",
"rX0X0XrXmX:XN   4 9 k + 7 0 @ k g , 3 6 t & # f t $ o o 6 M z.3XgXuXxXkXxX8X/.m.k.Q.Q.[./ 5 ' 3.X Y wXwXuX:XsX7XwX5X4X5XuXP.6 o ",
"0XmX6XwXsX .- 9 6 + 0 0 > g k + 8 8 k - : t & w . 4   9 *   X 9 U.aX6X8X6XjX6XjXhXcXkXNX9X|   k F S.7XdXwXdX3XwXwX5X3X4XuX6.o X ",
"9XbX9XmXH.- o k 0 6 3 4 3 7 7 7 3 0 C 9 4 - 4 5 3 * * 3 7 1 , o l 9XeXzX>XzXeX6X6XkXxX>XSX8.- W.7XAXtXyX0XyX0X0X6X6X7X4X}.M O O ",
"uXuXsX;X- l 4 5 9 0 0 3 3 7 7 3 3 0 0 9 0 7 7 7 5 = 1 3 8 3 , + X 8.dX5XBX6X6XeXzX>XeXNXW.- 2.xXpX5XMX,XmXyX0X6X>X7X7XiXF.1   O ",
"uXrXuXY * - x - 9 0 0 0 7 3 3 7 7 0 7 0 0 6 3 * 5 - * 1 3 3 3 3   s I.dXzX6XeXeX8XNXNXx.o h.wXxXxXuXBX6X6XqX6X6X5X7X4X7X..    O ",
"0XsX3.o s - 6 5 6 6 0 0 7 3 3 7 3 3 7 3 6 4 4 - 9 4 - + 3 3 3 3 4   z :XwXeXjXeXeXeX6Xd :.DXxXZXxXuX*X:XyX0X,X6X7X5X7X|.x X + O ",
"dXI.  p 6 p 6 * 3 3 3 3 3 3 3 7 3 3 7 6 4 4 4 4 4 4 - 3 4 3 3 * 5 4   ' wXsX6XzXH.F F ; ) 7.6.+.' b B Y |.0X,X3X4X*XiX9.@ + +   ",
"uXT   - s 4 s - 3 - 3 3 3 3 3 3 5 5 7 4 - % & & & % $ % - 4 4 - + 4 o o x.mX6XeX>X*Xh.s - s s x ( ( } 4 ' 0X:X}.5X5X5X(   o o X ",
"|.s o - s s 3 s 6 - + 3 0 3 3 3 7 5 3 4 4 t t t c c t $ % - 5 4 * - * % d 3XsX0XzX0XyXF ; c 2.9.2.F.F./ : ^.0X3X:X4XI.g   + + o ",
"I.X * 6 s 5 0 6 9 3 + 3 9 3 3 * 1 = * 6 x n S S 4.+.S ; . + 4 5 3 s   + % W.sXeX0XtXzXH.6 e ( ;.0.0.6.9.e T 6X>X*XiX3.  @ > + X ",
"3.3 - 3 - k p 0 0 3 3 3 0 0 3 * * 5 5  .2.7.F +.G.4.+.F b / + - 4 * o - + 6 :XwX6XMXwXzX/ o b ;.3.0.9.7.) ; G.zX:X}.z O   + + % ",
"( + 4 3 + 9 0 9 0 3 3 3 7 7 3 * * 5 + +.7.4.R ) G.4.+./ ) +.s 4 3 o 3 4 - o / sXyX0XeXMXH.e s / 9.5.7.x.h.t S >XwXA., O O > % . ",
"k + 9 0 3 0 3 9 0 3 3 3 3 3 3 + o 4   Y ) F F c +.) n n F F 3 o 3 1 3 o % 4   S.AX6X3XsX6XY + z | 3.7.h.c.X.& G.wX(   1 > + 3 . ",
"3 3 k 0 0 9 3 0 0 3 3 3 3 3 3 + 3 9 + 4 % $ e . c c e r r 4 % 3 > 7 o 3 + r o s [.MXeXtXMXI.4 9 I 7.7.>.f.f.w S W.9 X 1 +   < % ",
"7 9 g 0 9 k 3 7 3 3 3 3 3 3 3 3 < + 3 % % 6 d s ; e - ; 4   < 0 > + O 9 3 o - o ] zXsX:XMXuXb - b T R c.g.g.o.G ' o 1 O +   @ < ",
"7 9 3 3 9 k 9 0 3 3 3 + 3 3 3 < 4 o % % 4 - . - % - % + 3 X + + 1 + > O 6 + o - : d H.BXdXZXS.o 6 $ S R.R.m.Q.c.e o 1   1 < @ % ",
"7 7 3 3 0 9 9 0 3 3 3 + + + + +   < o . o o * 4 - - 5 o 0 3 < + > 1 +   4 6 - % ; . o n ;.' 4 o : w >.m.E.m.g.>.$ o O X 1 3 @ & ",
"3 3 3 9 3 3 9 0 0 3 3 + % % $ $ ) G.+.c # . 6 - * * 7   * + + > + , X 3 + . 6 o o - o -   o o : $ d R.g.m.i.f f . X X O O @ @ @ ",
"r 9 0 7 3 3 1 3 1 0 % $ & # X.R.E.E.&X&Xi.S & & X p X 1 1 1 , 1 * + O X + - - - - - - - 4 5 4 - : w 4./.c.S t :   + O X , O   + ",
"k r 0 3 7 8 7 1 3 9 o & # w &X&XoXM.d.k.+XY.S # o 7 * * O O , > + o o o * 3 3 + + * - - 3 * + o $ $ f ] h.+.b o %   + +   1 7   ",
"r 4 3 3 7 7 7 1 3 3 r t # R.OXT.M.+XM.p.@.&XY.t $   1 + + > 3 3 + o + + 3 3 + + + - + + o X o + . # . ; ) T e X -     + +   X g ",
"% % - 3 9 9 9 0 0 r t # o.=XOXT.M.k.-X$Xi.@.m.j.d   4 + * o @ @ > + + + > > + + X + 3 9 s x b M F ) +.:.8.N o X   * o + 0 3 x  .",
"+ - 0 s k k k k C t $ w R.#XR.OX+Xa.u.+X+Xj.X.#XF . + o 3 - % < + + + + + > 3 3 z B ( } } } } }  .Y Y Y N - o - + - 5 o   b ( x ",
"- 5 s k h g g k 3 4 % F /.%XY.T.$X$Xu.Z T.=XC.4.) s - X o X o + o + + + + 3 3 7 * 3 3 3 3 * - - 4 X 4 6 6 * 4 X + o     9 B x   ",
"7 9 i i 9 8 8 9 3 k % d [.c.#XY.s.Q.T.@.f f.o.t ;.3.( m l p p 6 3 5 5 5 5 5 6 9 5 5 5 5 6 p l x 5 * 5 o o o 5 - X o o s / B 6 s ",
"p a i 8 8 i h i p o 6 e 4.+.S R.Y.f.Q./.G t t -   m h i = i a 5 p p p p a i i 6 s l v B I n v l 5 * 3 - p 5 5 5 5 p Y ' M 7 6 p ",
"i i i i 2 i i i = = 3 - ; ; ; w c.^.G.G.n % 4 l.K.~ $.$.L _ _ l i i i a v I U P U U U I n n I U I I P P I B z p ( / P s 7 s k 6 ",
"2 u 2 2 2 i h h v v l p 6 6 6 ; / ] N n o + h l.Z.j j j u a v %.P P _ _ P P U U R ` #.#.#.#.#.#.%.*.*.;.3.3.} / M b x p 9 s s s ",
"L L L L L ~ ^ ^ ~ L v l p p 6 5 * p i l h i = h u = u j L L L %.` %.-.-.=.#.%.=.,.5.l.l.,.#.#.#.5.5.5.5.6.5.;.| b l p k k k k k ",
"1.1.1.&.$.=.=.=.{ { _ _ _ _ _ P P I v l m I m L L ^ $.~ ^ { I I I P _ _ _ ` %.,.,.5.5.5.,.:.:.:.;.;.;.;.2.3.*.' ( M x z z k k k ",
"{ { { ^ ^ ^ ^ ~ { _ _ { %.=.=.&.=.%.%.%.*.[ { { ^ L L L v I P _ I U P P P _ ' | ] ] ]  .#.#.#.#.:.:.:.2.6.8.6.3.| / B M M z x k ",
"&.&.&.&.$.&.$.{ _ ^ ~ ^ ` [ %.&.%.[ [ ` ( I I ~ $.L I ^ B B Y Y ' ` ` ' |  .;.;.7.7.7.7.7.4.:.;.:.2.7.6.8.8.8.6. .' Y M M M V z ",
"| | %.| [ &.&.%.=.=.&.&.&.=.<.<.=.*.*.2.*.*.<.<.` ~ ~ I B Y ) F / / ' }  .+.3.2.:.2.4.4.4.2.+.+.:.:.2.7.6.6.6.2.;.| ( B B B M V ",
"| | | ` ` [ [ [ %.&.&.&.%.[ [ [ %.%.|  .' *. .| *.<.| |  .) ) ) } }  . . . .+.3.4.7.7.4.4.3.3.4.:.:.7.7.7.7.6.6.2. .' ( ! M V M "
};
